<svg width="142" height="59" viewBox="0 0 142 59" fill="none" xmlns="http://www.w3.org/2000/svg">
<path d="M86.9084 58.6232C80.1776 58.6232 75.8352 56.4519 72.7954 54.0636C72.1441 54.4978 71.7098 54.9321 70.8413 55.3663C64.979 58.406 58.4653 58.6232 56.077 58.6232C46.5236 58.6232 41.5297 54.4978 39.1414 51.0239C38.9243 50.8067 38.7071 50.3725 38.49 50.1554C34.1476 55.3663 28.5024 58.6232 20.0346 58.6232C12.6524 58.6232 6.57296 55.8006 3.099 50.8067C-0.592093 45.3787 -1.02634 37.9965 2.01338 30.1801C6.13872 19.7582 15.475 13.4616 26.9825 13.4616C27.1996 13.4616 27.1996 13.4616 27.4168 13.4616C27.4168 13.2445 27.4168 12.8102 27.4168 12.5931C27.1996 8.90204 29.588 5.64519 33.0619 4.55958L43.2667 0.651369C44.3523 0.217123 45.4379 0 46.5236 0C49.7804 0 52.8201 1.73698 54.34 4.7767L58.6824 13.6787C59.9852 13.4616 61.2879 13.4616 62.5907 13.4616C68.8872 13.4616 73.881 15.6328 77.1379 19.5411C82.1317 15.6328 88.4283 13.4616 95.3762 13.4616C99.0673 13.4616 102.541 14.113 105.147 15.4157C106.015 15.85 106.884 16.2842 107.535 16.9356C111.443 14.7644 116.003 13.4616 120.997 13.4616C128.162 13.4616 134.241 16.2842 137.715 21.278C141.406 26.489 142.058 33.654 139.669 40.8191C135.761 51.6752 125.773 58.6232 114.049 58.6232C109.055 58.6232 104.495 57.3204 101.021 54.715C100.37 55.3663 99.5015 56.0177 98.633 56.2348C95.3762 57.7547 91.2509 58.406 87.1255 58.6232H86.9084Z" fill="#D0EC1A"/>
<path d="M115.351 44.2934C110.575 44.2934 109.923 39.7338 111.226 35.1742C112.312 31.4831 115.134 27.792 119.26 27.792C124.253 27.792 124.688 32.7859 123.168 37.1283C122.299 40.8194 119.477 44.2934 115.351 44.2934ZM114.049 51.0242C122.299 51.0242 129.464 46.4646 132.504 38.2139C135.544 29.529 132.07 21.0612 120.997 21.0612C112.095 21.0612 105.147 26.7064 102.541 34.0886C99.7185 42.3393 102.758 51.0242 114.049 51.0242ZM86.9083 51.0242C90.1651 51.0242 93.422 50.3728 95.8103 49.2872C96.6788 47.116 96.6788 44.9447 96.0275 42.7735C94.5076 43.4249 92.1192 44.0762 89.948 44.0762C83.6515 44.0762 83.2172 39.5167 84.5199 35.6085C86.0398 31.4831 89.7309 28.0092 95.5932 28.0092C97.1131 28.0092 98.6329 28.2263 99.5014 28.8776C101.021 26.7064 102.107 24.5352 102.324 22.364C101.021 21.7126 98.6329 21.2783 95.5932 21.2783C85.8227 21.2783 78.2234 26.9235 75.6179 34.74C72.7953 41.905 74.7494 51.0242 86.9083 51.0242ZM53.4714 33.2201C55.2084 29.529 57.8138 27.3578 61.0707 27.3578C64.1104 27.3578 64.5446 29.0948 64.1104 30.3975C63.459 32.1345 61.0707 33.2201 53.4714 33.2201ZM56.294 51.0242C59.5508 51.0242 63.8933 50.3728 67.5844 48.6358C68.2357 46.6817 68.2357 44.5105 67.3672 42.3393C64.9789 43.4249 61.722 44.2934 58.6823 44.2934C54.3399 44.2934 51.9515 42.7735 51.9515 39.2995C63.8933 39.5167 70.1898 37.3454 72.3611 32.1345C74.3152 26.7064 70.8412 21.2783 62.5905 21.2783C53.6885 21.2783 47.1748 27.5749 44.5693 34.5228C42.181 41.6879 43.7009 51.0242 56.294 51.0242ZM20.2516 51.0242C28.5023 51.0242 33.279 47.3331 38.707 35.6085C41.7467 29.3119 44.1351 23.0153 47.1748 16.7188L50.6488 17.8044C51.5173 18.0215 52.1686 17.5873 51.7344 16.7188L47.6091 8.03385C46.9577 7.59961 46.3063 7.59961 45.8721 7.59961L35.4502 11.5078C34.5817 11.7249 34.5817 12.5934 35.4502 12.8106L38.707 14.1133C36.1016 19.9756 33.0618 28.6605 30.4564 34.0886C27.6338 40.168 26.1139 44.5105 21.3372 44.5105C16.5605 44.5105 15.692 40.8194 17.6461 35.3913C20.0345 29.0948 23.9427 27.3578 28.5023 28.6605C29.805 26.9235 30.6735 24.3181 31.1077 21.9297C29.805 21.4955 28.2851 21.4955 26.9824 21.4955C19.6002 21.4955 12.4352 25.1866 9.39544 33.2201C5.48723 42.9906 9.17832 51.0242 20.2516 51.0242Z" fill="#07401A"/>
</svg>

